<svg xmlns="http://www.w3.org/2000/svg" xmlns:xlink="http://www.w3.org/1999/xlink" viewBox="0 0 252.11 89.75" width="252.11"  height="89.75" ><defs><style>.cls-1{fill:#fff;}.cls-2{fill:url(#linear-gradient);}</style><linearGradient id="linear-gradient" y1="44.87" x2="99.02" y2="44.87" gradientUnits="userSpaceOnUse"><stop offset="0" stop-color="#1580eb"/><stop offset="0.39" stop-color="#0ca6d8"/><stop offset="0.78" stop-color="#05c7c8"/><stop offset="1" stop-color="#02d3c2"/></linearGradient></defs><g id="Layer_2" data-name="Layer 2"><g id="Layer_1-2" data-name="Layer 1"><path class="cls-1" d="M126.27,33,114.69,59.76h-6.11L97,33h6.69l8.14,19.1L120.12,33Z"/><path class="cls-1" d="M140.07,38.89V44.4c-.5,0-.88-.08-1.34-.08-3.28,0-5.46,1.8-5.46,5.73v9.71h-6V39.2H133v2.71C134.45,39.93,136.9,38.89,140.07,38.89Z"/><path class="cls-1" d="M142.9,33a3.4,3.4,0,0,1,3.7-3.32c2.22,0,3.71,1.37,3.71,3.21a3.72,3.72,0,0,1-7.41.11Zm.72,6.19h6V59.76h-6Z"/><path class="cls-1" d="M168.39,58.76a8.54,8.54,0,0,1-4.86,1.3c-4.85,0-7.68-2.48-7.68-7.37V44.24h-3.17V39.66h3.17v-5h6v5h5.12v4.58h-5.12v8.37a2.4,2.4,0,0,0,2.56,2.71,4,4,0,0,0,2.41-.76Z"/><path class="cls-1" d="M180.08,34.62V59.76h-1.61V34.62h-9V33.05H189.1v1.57Z"/><path class="cls-1" d="M207.36,50.24H190c.23,4.86,3.59,8.1,8.21,8.1a9,9,0,0,0,6.73-2.75l.92,1a10.32,10.32,0,0,1-7.72,3.17c-5.62,0-9.71-4.12-9.71-10s4.09-10,9.71-10C204,39.81,207.48,44.09,207.36,50.24Zm-1.45-1.41c-.3-4.51-3.25-7.57-7.79-7.57a7.87,7.87,0,0,0-8.1,7.57Z"/><path class="cls-1" d="M227.77,42.6l-.92,1.15a8.83,8.83,0,0,0-6.15-2.41c-4.77,0-8.21,3.48-8.21,8.44s3.44,8.52,8.21,8.52a8.3,8.3,0,0,0,6.5-2.79l1,1a9.61,9.61,0,0,1-7.49,3.24c-5.61,0-9.74-4.12-9.74-10s4.13-10,9.74-10A9.88,9.88,0,0,1,227.77,42.6Z"/><path class="cls-1" d="M252.11,47.61V59.76h-1.6V47.91c0-4.09-2.41-6.49-6.5-6.49-4.93.11-7.79,3.4-7.79,8.59v9.75h-1.61V31.41h1.61V45.05c1.33-3.37,4.16-5.16,8.17-5.24C249.25,39.81,252.11,42.75,252.11,47.61Z"/><path class="cls-2" d="M99,14.31c-.25.6-.45,1.15-.73,1.67Q83.46,44.3,68.66,72.64a2.31,2.31,0,0,1-2.42,1.47c-3.09-.09-6.17,0-9.6,0,.32-.77.52-1.31.78-1.82Q68.55,51.1,79.67,29.93a3.23,3.23,0,0,1,.62-.78,0,0,0,0,0,0,0,5.29,5.29,0,1,0-5.45-2.71v0a2.82,2.82,0,0,1-.28,1.14Q58.22,57.84,41.78,88c-.27.48-.58.93-1.11,1.75C27.05,64.35,13.64,39.33,0,13.91H7.62c6.56,0,13.11.06,19.65,0A2.64,2.64,0,0,1,30,15.55c3.11,5.91,6.33,11.74,9.49,17.62.35.61.71,1.25,1.18,2.11.47-.75.8-1.24,1.07-1.75q9-16,17.88-32A2.39,2.39,0,0,1,62.09,0c3,.09,6,0,9.51,0L40.82,56.69C40.36,56,40,55.51,39.76,55,34.89,46,30,37,25.18,27.93A4.9,4.9,0,0,1,24.73,26h0a5.17,5.17,0,0,0,.42-2,5.28,5.28,0,1,0-5.91,5.24,4.45,4.45,0,0,1,1.25,1.56q9.5,17.94,19,35.85c.36.7.74,1.39,1.33,2.44,1.45-2.69,2.74-5.11,4-7.51,8.25-15.33,16.55-30.65,24.78-46A2.25,2.25,0,0,1,71.91,14c8.78.07,17.56.11,26.35.17A7.4,7.4,0,0,1,99,14.31Z"/></g></g></svg>